<?xml version="1.0" encoding="utf-8"?>
<!-- Svg Vector Icons : http://www.onlinewebfonts.com/icon -->
<!DOCTYPE svg PUBLIC "-//W3C//DTD SVG 1.1//EN" "http://www.w3.org/Graphics/SVG/1.1/DTD/svg11.dtd">
<svg version="1.1" xmlns="http://www.w3.org/2000/svg" xmlns:xlink="http://www.w3.org/1999/xlink" x="0px" y="0px" viewBox="0 0 256 256" enable-background="new 0 0 256 256" xml:space="preserve">
<metadata> Svg Vector Icons : http://www.onlinewebfonts.com/icon </metadata>
<g><g><g><path fill="#000000" d="M112.6,10.6c-14.2,2-25.7,5.6-38.1,11.9c-23,11.7-41.3,30.2-52.7,53.4C16.4,87,13.3,96.5,11,109.2c-1.3,7.4-1.3,30,0,37.3c2.4,12.8,5.4,22.2,10.8,33.3c14.7,30,41.4,52.4,73.5,61.7c20.4,5.9,44.7,5.9,65.1,0c31.6-9.2,58-31.1,72.9-60.4c8.7-17.1,12.6-33.7,12.6-53.3c0-19.6-3.9-36.1-12.7-53.4c-11.6-23-30.2-41.3-53.4-52.7c-10.9-5.4-19.7-8.2-32.1-10.6C140.7,9.9,119.9,9.5,112.6,10.6z M134.5,28.7c24.3,1.7,46.4,11.7,63.6,28.9c15.1,15.1,24.5,33.5,28,54.9c1.4,8.2,1.4,21.8,0.2,29.6c-6.9,44-40.1,77.2-84.1,84.1c-7.9,1.2-21.5,1.2-29.6-0.2c-32.7-5.4-59.8-25.4-74.2-55C20,133.2,27.7,87.6,57.7,57.7c16.7-16.7,39.5-27.2,62.4-28.9c3-0.3,5.9-0.5,6.3-0.5C126.8,28.3,130.5,28.5,134.5,28.7z"/><path fill="#000000" d="M135.1,60.3c-4.7,1.6-8.6,5.5-10.1,9.8c-0.4,1-0.6,3.3-0.6,5.2c0,13.3,17.5,20.1,27.8,10.7c3.7-3.4,5.1-6.3,5.1-10.9c0.1-4.5-1.7-8.5-5.2-11.5C147.7,59.7,140.6,58.3,135.1,60.3z"/><path fill="#000000" d="M120.5,104.7c-3,0.4-7.8,1.8-13.9,4.1c-6.1,2.2-6.3,2.4-6.8,4.1c-0.7,2.5-1.2,5.7-0.9,5.7c0.2,0,1.6-0.5,3.3-1.1c3.7-1.3,9.9-1.4,12.7-0.3c2.4,1,3.4,3.2,3.4,7.5c0,4.3-1,8.6-5.6,24.9c-4.6,16.1-5.4,20.3-5.1,26.3c0.2,3.5,0.5,4.8,1.7,7c2.8,5.2,7.6,8.3,14.6,9.4c7.4,1.1,14.3-0.2,25.8-4.8l4.1-1.6l0.9-3.5c0.5-1.9,0.9-3.6,0.8-3.7c-0.1-0.1-1.7,0.3-3.5,0.9c-3.9,1.2-11.7,1.2-13.7,0c-1.7-1.2-2.7-3.6-2.7-7.3c0-4.5,0.9-8.3,5.6-25.2c4.3-15.2,5.4-20.8,5-26.3c-0.6-8.4-6.1-14.2-15-15.8C128.3,104.4,123.6,104.3,120.5,104.7z"/></g></g></g>
</svg>