<?xml version="1.0" encoding="utf-8"?>
<!-- Svg Vector Icons : http://www.onlinewebfonts.com/icon -->
<!DOCTYPE svg PUBLIC "-//W3C//DTD SVG 1.1//EN" "http://www.w3.org/Graphics/SVG/1.1/DTD/svg11.dtd">
<svg version="1.1" xmlns="http://www.w3.org/2000/svg" xmlns:xlink="http://www.w3.org/1999/xlink" x="0px" y="0px" viewBox="0 0 256 256" enable-background="new 0 0 256 256" xml:space="preserve">
<metadata> Svg Vector Icons : http://www.onlinewebfonts.com/icon </metadata>
<g><g><path fill="#000000" d="M128,246c-57,0-103.3-46.2-103.3-103.3c0-41.1,24.2-76.2,59-92.7v34c-17.8,13.4-29.5,34.6-29.5,58.7c0,40.7,33,73.7,73.8,73.7c40.7,0,73.8-33,73.8-73.7c0-24.1-11.7-45.3-29.5-58.7V50c34.8,16.5,59,51.6,59,92.7C231.3,199.8,185,246,128,246L128,246z M142.7,113.2c0,8.2-6.6,14.8-14.8,14.8c-8.1,0-14.7-6.6-14.7-14.8V24.7c0-8.1,6.6-14.7,14.7-14.7c8.2,0,14.8,6.6,14.8,14.7V113.2z"/></g></g>
</svg>